<?xml version="1.0" encoding="UTF-8"?>
<svg xmlns="http://www.w3.org/2000/svg" xmlns:xlink="http://www.w3.org/1999/xlink" width="50pt" height="50pt" viewBox="0 0 50 50" version="1.1">
<g id="surface1151108">
<path style=" stroke:none;fill-rule:nonzero;fill:rgb(93.72549%,24.313725%,21.176471%);fill-opacity:1;" d="M 25 0.0976562 C 22.546875 0.0976562 20.476562 1.460938 17.402344 3.042969 C 14.332031 4.625 10.21875 6.53125 3.785156 7.945312 L 3 8.117188 L 3 8.917969 C 3 24.242188 8.355469 34.46875 13.738281 40.816406 C 19.117188 47.167969 24.582031 49.699219 24.582031 49.699219 L 25.023438 49.902344 L 25.453125 49.679688 C 25.453125 49.679688 47 38.578125 47 8.917969 L 47 8.117188 L 46.214844 7.945312 C 39.78125 6.53125 35.667969 4.625 32.597656 3.042969 C 29.523438 1.460938 27.453125 0.0976562 25 0.0976562 Z M 25 2.097656 C 26.644531 2.097656 28.542969 3.207031 31.683594 4.824219 C 34.660156 6.355469 38.863281 8.210938 44.9375 9.644531 C 44.582031 36.777344 26.277344 46.9375 24.984375 47.621094 C 24.359375 47.316406 20.03125 45.152344 15.265625 39.527344 C 10.234375 33.589844 5.242188 24.058594 5.0625 9.644531 C 11.136719 8.210938 15.339844 6.355469 18.320312 4.824219 C 21.457031 3.207031 23.355469 2.097656 25 2.097656 Z M 23 12 L 22.402344 15.199219 C 22.101562 15.300781 21.699219 15.398438 21.402344 15.597656 L 18.699219 13.699219 L 15.699219 16.699219 L 17.5 19.199219 C 17.398438 19.597656 17.199219 19.902344 17.101562 20.300781 L 14 20.800781 L 14 25 L 17.101562 25.5 C 17.199219 25.800781 17.300781 26.199219 17.5 26.5 L 15.699219 29.199219 L 18.699219 32.199219 L 21.402344 30.398438 C 21.800781 30.601562 22.101562 30.699219 22.5 30.800781 L 23 34 L 27.097656 34 L 27.699219 30.898438 C 28 30.800781 28.300781 30.699219 28.699219 30.5 L 31.398438 32.300781 L 34.398438 29.300781 L 32.5 26.699219 C 32.699219 26.300781 32.800781 25.898438 32.898438 25.597656 L 36 25 L 36 20.800781 L 32.800781 20.300781 C 32.699219 20 32.601562 19.601562 32.398438 19.300781 L 34.199219 16.597656 L 31.300781 13.699219 L 28.699219 15.597656 C 28.398438 15.398438 28 15.300781 27.699219 15.199219 L 27.199219 12 Z M 24.699219 14 L 25.5 14 L 25.902344 16.699219 L 26.5 16.898438 C 27.101562 17.101562 27.699219 17.300781 28.199219 17.597656 L 28.800781 18 L 31.097656 16.300781 L 31.597656 16.800781 L 30 19.101562 L 30.300781 19.601562 C 30.601562 20.199219 30.800781 20.800781 31 21.402344 L 31.199219 22 L 34 22.402344 L 34 23.199219 L 31.300781 23.800781 L 31.101562 24.402344 C 30.898438 25 30.699219 25.601562 30.402344 26.101562 L 30 26.699219 L 31.699219 29 L 31.097656 29.601562 L 28.800781 28 L 28.300781 28.300781 C 27.699219 28.601562 27.101562 28.800781 26.5 29 L 25.898438 29.199219 L 25.398438 32 L 24.597656 32 L 24.199219 29.300781 L 23.597656 29.101562 C 23 28.898438 22.398438 28.699219 21.898438 28.402344 L 21.300781 28 L 18.898438 29.601562 L 18.300781 29 L 19.898438 26.699219 L 19.597656 26.199219 C 19.300781 25.597656 19.101562 24.902344 18.898438 24.402344 L 18.699219 23.800781 L 16 23.300781 L 16 22.5 L 18.800781 22 L 18.902344 21.300781 C 19 20.800781 19.199219 20.199219 19.5 19.699219 L 19.902344 19.199219 L 18.300781 16.902344 L 18.902344 16.300781 L 21.199219 17.902344 L 21.699219 17.699219 C 22.398438 17.398438 23 17.101562 23.601562 16.902344 L 24.199219 16.800781 Z M 25 18.902344 C 22.800781 18.902344 21 20.699219 21 22.902344 C 21 25.101562 22.800781 26.902344 25 26.902344 C 27.199219 26.902344 29 25.199219 29 22.902344 C 29 20.699219 27.199219 18.902344 25 18.902344 Z M 25 21 C 26.101562 21 27 21.800781 27 23 C 27 24.101562 26.101562 25 25 25 C 23.898438 25 23 24.101562 23 23 C 23 21.898438 23.898438 21 25 21 Z M 25 21 "/>
</g>
</svg>
