<?xml version="1.0" encoding="UTF-8"?>
<svg xmlns="http://www.w3.org/2000/svg" xmlns:xlink="http://www.w3.org/1999/xlink" width="50pt" height="50pt" viewBox="0 0 50 50" version="1.1">
<g id="surface558026">
<path style=" stroke:none;fill-rule:nonzero;fill:rgb(93.72549%,24.313725%,21.176471%);fill-opacity:1;" d="M 25 0 C 22.546875 0 20.476562 1.367188 17.402344 2.945312 C 14.332031 4.527344 10.21875 6.433594 3.785156 7.847656 L 3 8.019531 L 3 8.824219 C 3 24.144531 8.355469 34.371094 13.738281 40.722656 C 19.117188 47.070312 24.582031 49.601562 24.582031 49.601562 L 25.023438 49.804688 L 25.453125 49.585938 C 25.453125 49.585938 47 38.480469 47 8.820312 L 47 8.019531 L 46.214844 7.84375 C 39.78125 6.433594 35.667969 4.527344 32.597656 2.945312 C 29.523438 1.367188 27.453125 0 25 0 Z M 25 2 C 26.644531 2 28.542969 3.109375 31.683594 4.726562 C 34.660156 6.257812 38.863281 8.113281 44.9375 9.546875 C 44.582031 36.679688 26.277344 46.839844 24.984375 47.519531 C 24.359375 47.21875 20.03125 45.054688 15.265625 39.425781 C 10.234375 33.492188 5.242188 23.960938 5.0625 9.546875 C 11.136719 8.113281 15.339844 6.257812 18.320312 4.726562 C 21.457031 3.109375 23.355469 2 25 2 Z M 25 13 C 19.488281 13 15 17.488281 15 23 C 15 28.511719 19.488281 33 25 33 C 30.511719 33 35 28.511719 35 23 C 35 17.488281 30.511719 13 25 13 Z M 25 15 C 29.429688 15 33 18.570312 33 23 C 33 27.429688 29.429688 31 25 31 C 20.570312 31 17 27.429688 17 23 C 17 18.570312 20.570312 15 25 15 Z M 25 19 C 22.789062 19 21 20.789062 21 23 C 21 25.210938 22.789062 27 25 27 C 27.210938 27 29 25.210938 29 23 C 29 22.878906 28.976562 22.765625 28.964844 22.648438 C 28.578125 22.867188 28.140625 23 27.667969 23 C 26.195312 23 25 21.804688 25 20.332031 C 25 19.859375 25.132812 19.421875 25.351562 19.035156 C 25.234375 19.023438 25.121094 19 25 19 Z M 25 19 "/>
</g>
</svg>
