<?xml version="1.0" encoding="UTF-8"?>
<svg xmlns="http://www.w3.org/2000/svg" xmlns:xlink="http://www.w3.org/1999/xlink" width="50pt" height="50pt" viewBox="0 0 50 50" version="1.1">
<g id="surface670283">
<path style=" stroke:none;fill-rule:nonzero;fill:rgb(93.72549%,24.313725%,21.176471%);fill-opacity:1;" d="M 5 4 C 4.449219 4 4 4.449219 4 5 L 4 15 C 4 15.550781 4.449219 16 5 16 L 45 16 C 45.550781 16 46 15.550781 46 15 L 46 5 C 46 4.449219 45.550781 4 45 4 Z M 6 6 L 44 6 L 44 14 L 6 14 Z M 10 9 C 9.449219 9 9 9.449219 9 10 C 9 10.550781 9.449219 11 10 11 C 10.550781 11 11 10.550781 11 10 C 11 9.449219 10.550781 9 10 9 Z M 14 9 C 13.449219 9 13 9.449219 13 10 C 13 10.550781 13.449219 11 14 11 C 14.550781 11 15 10.550781 15 10 C 15 9.449219 14.550781 9 14 9 Z M 18 9 C 17.449219 9 17 9.449219 17 10 C 17 10.550781 17.449219 11 18 11 C 18.550781 11 19 10.550781 19 10 C 19 9.449219 18.550781 9 18 9 Z M 4 19 L 4 45 C 4 45.550781 4.449219 46 5 46 L 45 46 C 45.550781 46 46 45.550781 46 45 L 46 19 L 44 19 L 44 44 L 6 44 L 6 19 Z M 10 19 C 9.449219 19 9 19.449219 9 20 L 9 40 C 9 40.550781 9.449219 41 10 41 L 23 41 C 23.550781 41 24 40.550781 24 40 L 24 20 C 24 19.449219 23.550781 19 23 19 Z M 27 19 L 27 21 L 41 21 L 41 19 Z M 11 21 L 22 21 L 22 39 L 11 39 Z M 27 24 L 27 26 L 41 26 L 41 24 Z M 27 29 L 27 31 L 41 31 L 41 29 Z M 27 34 L 27 36 L 41 36 L 41 34 Z M 27 39 L 27 41 L 41 41 L 41 39 Z M 27 39 "/>
</g>
</svg>
