<?xml version="1.0" encoding="utf-8"?>
<!-- Generator: Adobe Illustrator 23.1.1, SVG Export Plug-In . SVG Version: 6.00 Build 0)  -->
<svg version="1.1" id="Layer_1" xmlns="http://www.w3.org/2000/svg" xmlns:xlink="http://www.w3.org/1999/xlink" x="0px" y="0px"
	 viewBox="0 0 253.6 34.6" style="enable-background:new 0 0 253.6 34.6;" xml:space="preserve">
<style type="text/css">
	.st0{fill:#231F20;}
	.st1{fill:#FFFFFF;}
	.st2{stroke:#000000;stroke-miterlimit:10;}
	.st3{fill:#0A0C15;}
	.st4{fill:#EF3E36;}
</style>
<g>
	
		<text transform="matrix(1 0 0 1 -165.6847 -856.0912)" style="font-family:'Montserrat-SemiBold'; font-size:14.6381px; letter-spacing:8;">REC</text>
	
		<text transform="matrix(1 0 0 1 -164.6154 -837.5101)" style="font-family:'Montserrat-SemiBold'; font-size:14.6381px; letter-spacing:8;">TAN</text>
	
		<text transform="matrix(1 0 0 1 -164.6154 -820.2719)" style="font-family:'Montserrat-SemiBold'; font-size:14.6381px; letter-spacing:9;">GLE</text>
</g>
<g>
	<path d="M-36.6-839.9v1.7h-2.7v7.1h-2v-7.1H-44v-1.7H-36.6z"/>
	<path d="M-26.8-831.1l-1.4-2.5h-0.2h-1.8v2.5h-2v-8.8h3.8c2.3,0,3.6,1.1,3.6,3.1c0,1.4-0.6,2.3-1.7,2.8l1.9,2.9H-26.8z
		 M-30.3-835.3h1.8c1.1,0,1.7-0.5,1.7-1.5c0-1-0.6-1.5-1.7-1.5h-1.8V-835.3z"/>
	<path d="M0.6-839.9l2.4,6.7l2.4-6.7h2.1L4-831.1H1.9l-3.5-8.8H0.6z"/>
	<path d="M18.1-839.9v1.7h-4.7v1.9h4.3v1.7h-4.3v2h4.9v1.7h-6.9v-8.8H18.1z"/>
	<path d="M25.1-839.9v7.1h3.8v1.7h-5.8v-8.8H25.1z"/>
	<g>
		<polygon class="st0" points="-2.1,-844.1 -18,-837.1 -17,-830 		"/>
		<polygon class="st0" points="-2.1,-844.1 -21.2,-840.1 -32.3,-844 		"/>
	</g>
</g>
<g>
	<ellipse cx="135.2" cy="-841.3" rx="38.8" ry="14.8"/>
	<g>
		
			<text transform="matrix(1 0 0 1 110.675 -837.4398)" class="st1" style="font-family:'Elsie-Regular'; font-size:12.9642px; letter-spacing:1;">ROYAL</text>
	</g>
</g>
<g>
	<rect x="261.2" y="-851.8" width="28.7" height="18.2"/>
	<g>
		<text transform="matrix(1 0 0 1 230.3416 -838.139)"><tspan x="0" y="0" style="font-family:'Montserrat-SemiBold'; font-size:12.7129px; letter-spacing:7;">DE</tspan><tspan x="33.8" y="0" class="st1" style="font-family:'Montserrat-SemiBold'; font-size:12.7129px; letter-spacing:7;">LU</tspan><tspan x="66.2" y="0" style="font-family:'Montserrat-SemiBold'; font-size:12.7129px; letter-spacing:7;">XE</tspan></text>
	</g>
</g>
<g>
	
		<text transform="matrix(1 0 0 1 -125.3615 -725.787)" style="font-family:'Montserrat-Light'; font-size:12.2327px; letter-spacing:4;">NEOQUEN</text>
	<circle cx="-67.2" cy="-738.1" r="0.9"/>
	<circle cx="-61.8" cy="-738.1" r="0.9"/>
</g>
<g>
	
		<text transform="matrix(1 0 0 1 42.4832 -726.6641)" style="font-family:'Montserrat-SemiBold'; font-size:14.6381px; letter-spacing:6;">ULTINE</text>
	<polyline points="82.7,-739.4 78.4,-743.7 74.1,-739.4 	"/>
</g>
<path d="M132.4-237v16.5h42V-237H132.4z M173.4-221.6h-40V-236h40V-221.6z"/>
<g>
	<text transform="matrix(1 0 0 1 88.9963 -223.4128)"><tspan x="0" y="0" style="font-family:'Montserrat-Bold'; font-size:14.6381px; letter-spacing:4;">NEO</tspan><tspan x="46.3" y="0" style="font-family:'Montserrat-Light'; font-size:14.6381px; letter-spacing:4;">SPA</tspan></text>
</g>
<g>
	<rect x="245.2" y="-742.7" width="30.2" height="10"/>
	
		<text transform="matrix(1 0 0 1 210.5962 -732.733)" style="font-family:'Montserrat-SemiBold'; font-size:14.6381px; letter-spacing:2;">BIO</text>
	
		<text transform="matrix(1 0 0 1 210.5962 -719.9092)" style="font-family:'Montserrat-SemiBold'; font-size:14.6381px; letter-spacing:2;">RHYME</text>
</g>
<g>
	
		<text transform="matrix(1 0 0 1 -24.2641 -615.3203)" style="font-family:'Montserrat-ExtraBold'; font-size:14.6381px; letter-spacing:3;">Pod</text>
	
		<text transform="matrix(1 0 0 1 22.5487 -615.3201)" style="font-family:'Montserrat-ExtraBold'; font-size:14.6381px; letter-spacing:3;">S</text>
	<polygon points="18.5,-617.5 18.5,-624 15.1,-620.8 	"/>
</g>
<g>
	<g>
		<path d="M141.6-635.5c0.5,0,0.7,0.3,0.7,0.8l-3.2,28.1c0,0.5-0.3,0.7-0.8,0.7h-3.6c-0.4,0-0.7-0.2-0.8-0.7l-3.8-16.7l-3.9,16.7
			c-0.1,0.4-0.4,0.6-0.8,0.6h-3.7c-0.5,0-0.7-0.2-0.8-0.7l-3-28.1c0-0.5,0.2-0.8,0.7-0.8h3.5c0.4,0,0.7,0.3,0.8,0.7l1.4,17.3h0.2
			l3.7-17.3c0.1-0.4,0.4-0.7,0.8-0.7h2.2c0.4,0,0.7,0.2,0.8,0.7l3.6,17.3h0.2l1.5-17.3c0-0.4,0.3-0.7,0.8-0.7H141.6z"/>
		<path d="M157-606c-0.3,0-0.5-0.2-0.6-0.5l-1-5.4h-6.6l-1,5.4c-0.1,0.3-0.3,0.5-0.6,0.5h-4c-0.4,0-0.6-0.2-0.5-0.6l6.1-28.4
			c0.1-0.4,0.3-0.5,0.6-0.5h5.1c0.3,0,0.6,0.1,0.6,0.5l6.1,28.4c0.1,0.4-0.1,0.6-0.5,0.6H157z M152-629.1l-2.4,12.9h4.7L152-629.1z"
			/>
		<path d="M177.2-635.5c0.6,0,0.8,0.3,0.6,0.8l-6.8,16.4v11.5c0,0.5-0.3,0.7-0.7,0.7h-3.5c-0.5,0-0.7-0.3-0.7-0.7v-11.5l-6.8-16.4
			c-0.2-0.5,0-0.8,0.6-0.8h3.7c0.4,0,0.7,0.2,0.8,0.6l4.1,10.6l4.1-10.6c0.1-0.4,0.4-0.6,0.8-0.6H177.2z"/>
	</g>
	<rect x="112.7" y="-627.9" class="st1" width="30" height="15.4"/>
	<text transform="matrix(1 0 0 1 109.2273 -614.1181)" style="font-family:'Norwester-Regular'; font-size:15.2402px;">RALE</text>
</g>
<g>
	<text transform="matrix(1 0 0 1 252.3398 -616.8303)"><tspan x="0" y="0" style="font-family:'Montserrat-SemiBold'; font-size:12.8745px; letter-spacing:3;">DREX</tspan><tspan x="53" y="0" style="font-family:'Montserrat-Light'; font-size:12.8745px; letter-spacing:3;">TEL</tspan></text>
	<polygon class="st1" points="252.3,-624.7 252.3,-618 257,-621.3 	"/>
</g>
<g>
	<polygon points="77.8,-407 126,-404.7 134.6,-430.5 68.6,-421.3 	"/>
	<text transform="matrix(1 0 0 1 80.4959 -412.1133)" class="st1" style="font-family:'Montserrat-Light'; font-size:10.9564px;">answer</text>
</g>
<g>
	<circle cx="-77.6" cy="-516.5" r="17.1"/>
	<text transform="matrix(1 0 0 1 -116.6999 -511.493)"><tspan x="0" y="0" style="font-family:'Montserrat-Medium'; font-size:11.9992px; letter-spacing:6;">FU</tspan><tspan x="31" y="0" class="st1" style="font-family:'Montserrat-Medium'; font-size:11.9992px; letter-spacing:6;">SI</tspan><tspan x="56.1" y="0" style="font-family:'Montserrat-Medium'; font-size:11.9992px; letter-spacing:6;">ON</tspan></text>
</g>
<g>
	<g>
		<text transform="matrix(1 0 0 1 59.1081 -517.5648)" style="font-family:'Superclarendon-BlackItalic'; font-size:15.0584px;">SUPER</text>
	</g>
	<g>
		<text transform="matrix(1 0 0 1 56.946 -504.222)" style="font-family:'Superclarendon-BlackItalic'; font-size:13.5785px;">RACE</text>
	</g>
	<polygon points="110.1,-511 106.7,-511 107.1,-514.3 110.5,-514.3 	"/>
	<polygon points="113,-507.6 109.6,-507.6 110.1,-511 113.4,-511 	"/>
	<polygon points="109.2,-504.2 105.8,-504.2 106.3,-507.6 109.6,-507.6 	"/>
	<polygon points="116.8,-511 113.4,-511 113.9,-514.3 117.2,-514.3 	"/>
	<polygon points="116,-504.2 112.6,-504.2 113,-507.6 116.4,-507.6 	"/>
	<polygon points="123.6,-511 120.2,-511 120.7,-514.3 124,-514.3 	"/>
	<polygon points="122.8,-504.2 119.4,-504.2 119.8,-507.6 123.2,-507.6 	"/>
	<polygon points="119.8,-507.6 116.4,-507.6 116.8,-511 120.2,-511 	"/>
</g>
<g>
	<g>
		<path d="M233.6-515.9h-4.7l-1,2.2h-1l3.8-8.6h1l3.8,8.6h-1.1L233.6-515.9z M233.2-516.8l-1.9-4.4l-1.9,4.4H233.2z"/>
		<path d="M248.1-519.4c0,1.9-1.2,3-3.3,3h-2.2v2.7h-1v-8.6h3.2C246.9-522.2,248.1-521.2,248.1-519.4z M247.2-519.3
			c0-1.3-0.9-2-2.4-2h-2.2v4h2.2C246.3-517.3,247.2-518,247.2-519.3z"/>
	</g>
	<path d="M218.9-536.3v37.5h37.5v-37.5H218.9z M255.4-499.8h-35.6v-35.6h35.6V-499.8z"/>
</g>
<g>
	<path d="M-159-410.7v-0.9c-0.5,0.7-1.4,1-2.5,1c-1.7,0-2.7-1-2.7-2.5c0-1.5,1.1-2.4,3-2.4h2.2v-0.1c0-0.8-0.6-1.3-1.6-1.3
		c-0.7,0-1.5,0.2-2.3,0.7l-0.7-1.6c1.2-0.6,2.2-0.9,3.6-0.9c2.1,0,3.3,1.1,3.3,2.8l0,5.1H-159z M-159-413.4v-0.7h-1.8
		c-0.9,0-1.3,0.3-1.3,0.9c0,0.6,0.5,1,1.2,1C-159.9-412.2-159.1-412.8-159-413.4z"/>
	<path d="M-149.3-430.3v19.6h-2.3v-19.6H-149.3z"/>
	<path d="M-141.5-421.6v19.6h-2.3v-19.6H-141.5z"/>
	<path d="M-128.7-414h-5.6c0.3,1,1,1.6,2,1.6c0.7,0,1.4-0.3,2-0.8l1.2,1.2c-0.8,0.9-1.9,1.4-3.4,1.4c-2.5,0-4.1-1.6-4.1-4
		c0-2.4,1.7-4,4.1-4C-129.8-418.7-128.6-416.8-128.7-414z M-130.8-415.3c0-1-0.7-1.7-1.7-1.7c-1,0-1.7,0.7-1.8,1.7H-130.8z"/>
	<path d="M-119.2-418.7v2.1c-1.6-0.1-2.6,0.7-2.6,2v3.8h-2.3v-7.9h2.3v1.4C-121.2-418.2-120.3-418.7-119.2-418.7z"/>
</g>
<g>
	<g>
		
			<text transform="matrix(1 0 0 1 -174.5168 -616.0457)" style="font-family:'Montserrat-SemiBold'; font-size:14.6381px; letter-spacing:3;">space</text>
		<circle cx="-117.2" cy="-634.7" r="6"/>
		<circle cx="-108.2" cy="-622.7" r="3.2"/>
		<circle cx="-104.1" cy="-633.2" r="1.8"/>
	</g>
	<g>
		
			<text transform="matrix(1 0 0 1 -174.5168 -616.0457)" style="font-family:'Montserrat-SemiBold'; font-size:14.6381px; letter-spacing:3;">space</text>
		<circle cx="-117.2" cy="-634.7" r="6"/>
		<circle cx="-108.2" cy="-622.7" r="3.2"/>
		<circle cx="-104.1" cy="-633.2" r="1.8"/>
	</g>
	<g>
		
			<text transform="matrix(1 0 0 1 -174.5168 -616.0457)" style="font-family:'Montserrat-SemiBold'; font-size:14.6381px; letter-spacing:3;">space</text>
		<circle cx="-117.2" cy="-634.7" r="6"/>
		<circle cx="-108.2" cy="-622.7" r="3.2"/>
		<circle cx="-104.1" cy="-633.2" r="1.8"/>
	</g>
</g>
<g>
	<path d="M-49.1-420.3c-0.5,0-0.8,0.2-0.8,0.6c0,1.5,5.4,0.6,5.4,4.3c0,2.2-1.9,3.2-4.2,3.2c-1.7,0-3.6-0.6-4.9-1.6l1.1-2.3
		c1.1,0.9,2.8,1.6,3.8,1.6c0.6,0,1.1-0.2,1.1-0.7c0-1.6-5.4-0.6-5.4-4.2c0-2,1.7-3.2,4.2-3.2c1.6,0,3.2,0.5,4.3,1.2l-1.1,2.3
		C-46.7-419.8-48.2-420.3-49.1-420.3z"/>
	<path d="M-35.2-417.5c0,3-2.4,5.3-5.6,5.3c-3.2,0-5.6-2.2-5.6-5.3c0-3,2.4-5.2,5.6-5.2C-37.6-422.7-35.2-420.5-35.2-417.5z
		 M-43.3-417.5c0,1.6,1.2,2.7,2.5,2.7c1.3,0,2.4-1.2,2.4-2.7c0-1.6-1.1-2.7-2.4-2.7C-42.2-420.2-43.3-419-43.3-417.5z"/>
	<path d="M-35.4-422.6l4.3,5.7v-5.7h2.8v10.3h-2.6l-4.3-5.7v5.7H-38v-10.3H-35.4z"/>
	<path d="M-24.7-422.6v10.3h-3v-10.3H-24.7z"/>
	<path d="M-19.9-420.3c-1.4,0-2.4,1.1-2.4,2.6c0,1.5,1.1,2.6,2.4,2.6c0.8,0,1.7-0.5,2.4-1.2l1.8,1.9c-1.1,1.2-2.8,2-4.3,2
		c-3.1,0-5.4-2.3-5.4-5.3c0-3,2.3-5.2,5.5-5.2c1.6,0,3.2,0.7,4.2,1.8l-1.8,2.1C-18.1-419.8-19.1-420.3-19.9-420.3z"/>
	<polygon points="-8.7,-422.6 -18.6,-401.5 -24.7,-412.4 -26.2,-408.2 -6.6,-415.7 	"/>
</g>
<text transform="matrix(1 0 0 1 215.8996 -411.1134)" style="font-family:'Montserrat-Light'; font-size:12.2327px; letter-spacing:4;">NEOQUEN</text>
<text transform="matrix(1 0 0 1 262.5661 -404.0905)" style="font-family:'Montserrat-Regular'; font-size:4.6911px; letter-spacing:1;">NIGHT CLUB</text>
<polygon points="210.2,-425.4 210.2,-404.1 255.6,-404.1 255.6,-405.3 211.2,-405.3 211.2,-424.2 313.8,-424.2 313.8,-406.6 
	313.8,-405.3 313.8,-404.1 314.8,-404.1 314.8,-425.4 "/>
<polygon points="-88.1,-306.2 -88.1,-298.7 -99.6,-298.7 -99.6,-310.2 -92.1,-310.2 -91,-311.2 -100.6,-311.2 -100.6,-297.6 
	-87,-297.6 -87,-307.2 "/>
<polygon points="-85.3,-309.1 -85.3,-313.1 -89.2,-313.1 -90.3,-312 -86.3,-312 -86.3,-308 "/>
<text transform="matrix(1 0 0 1 -85.2495 -297.5911)"><tspan x="0" y="0" style="font-family:'Montserrat-Light'; font-size:12.6798px;">FLY</tspan><tspan x="24.1" y="0" style="font-family:'Montserrat-SemiBold'; font-size:12.6798px;">BOX</tspan></text>
<g>
	<path d="M65.1-308.6v1.3h-3.6v2.3h2.9v1.3h-2.9v3.6h-1.7v-8.5H65.1z"/>
	<path d="M79.4-308.2c0.6,0.4,1.2,0.9,1.5,1.5c0.4,0.7,0.6,1.4,0.6,2.2s-0.2,1.6-0.6,2.2c-0.4,0.7-0.9,1.2-1.5,1.5S78-300,77.2-300
		s-1.5-0.2-2.2-0.6c-0.6-0.4-1.2-0.9-1.5-1.5c-0.4-0.7-0.6-1.4-0.6-2.2s0.2-1.6,0.6-2.2c0.4-0.7,0.9-1.2,1.5-1.5
		c0.6-0.4,1.4-0.6,2.2-0.6S78.7-308.5,79.4-308.2z M75.9-306.8c-0.4,0.2-0.7,0.5-0.9,1s-0.3,0.9-0.3,1.5c0,0.6,0.1,1,0.3,1.5
		s0.5,0.7,0.9,1c0.4,0.2,0.8,0.3,1.3,0.3s0.9-0.1,1.3-0.3c0.4-0.2,0.7-0.5,0.9-1s0.3-0.9,0.3-1.5c0-0.6-0.1-1-0.3-1.5
		s-0.5-0.7-0.9-1c-0.4-0.2-0.8-0.3-1.3-0.3S76.3-307,75.9-306.8z"/>
	<path d="M96.1-307.9c0.7,0.5,1.2,1.3,1.4,2.2h-1.8c-0.2-0.5-0.5-0.8-0.9-1.1c-0.4-0.3-0.9-0.4-1.4-0.4c-0.4,0-0.9,0.1-1.2,0.3
		c-0.4,0.2-0.6,0.5-0.8,1c-0.2,0.4-0.3,0.9-0.3,1.5c0,0.6,0.1,1,0.3,1.5c0.2,0.4,0.5,0.7,0.8,1c0.4,0.2,0.8,0.3,1.2,0.3
		c0.5,0,1-0.1,1.4-0.4c0.4-0.3,0.7-0.6,0.9-1.1h1.8c-0.2,0.9-0.7,1.7-1.4,2.2c-0.7,0.5-1.6,0.8-2.6,0.8c-0.8,0-1.5-0.2-2.1-0.5
		c-0.6-0.4-1.1-0.9-1.4-1.5s-0.5-1.4-0.5-2.2c0-0.8,0.2-1.6,0.5-2.2s0.8-1.2,1.4-1.5c0.6-0.4,1.3-0.5,2.1-0.5
		C94.6-308.7,95.4-308.4,96.1-307.9z"/>
	<path d="M107.4-308.6v5c0,0.7,0.1,1.2,0.4,1.5c0.3,0.3,0.7,0.5,1.3,0.5c0.5,0,1-0.2,1.3-0.5c0.3-0.3,0.4-0.8,0.4-1.5v-5h1.7v5
		c0,0.8-0.1,1.4-0.4,2c-0.3,0.5-0.7,0.9-1.2,1.2c-0.5,0.3-1.1,0.4-1.8,0.4c-1,0-1.8-0.3-2.4-0.9c-0.6-0.6-0.9-1.5-0.9-2.7v-5H107.4z
		"/>
	<path d="M126.4-301.3c-0.2,0.4-0.5,0.7-1,0.9c-0.4,0.2-0.9,0.3-1.5,0.3c-0.6,0-1.1-0.1-1.6-0.3c-0.5-0.2-0.8-0.5-1.1-0.9
		c-0.3-0.4-0.4-0.8-0.5-1.3h1.8c0,0.3,0.2,0.6,0.4,0.9c0.2,0.2,0.5,0.3,0.9,0.3c0.4,0,0.6-0.1,0.8-0.3c0.2-0.2,0.3-0.4,0.3-0.7
		c0-0.3-0.1-0.5-0.2-0.7c-0.2-0.2-0.3-0.3-0.6-0.4c-0.2-0.1-0.6-0.2-1-0.4c-0.5-0.2-1-0.3-1.3-0.5c-0.3-0.2-0.6-0.4-0.9-0.8
		c-0.2-0.3-0.4-0.8-0.4-1.3c0-0.7,0.3-1.3,0.8-1.7s1.2-0.6,2.1-0.6c0.9,0,1.6,0.2,2.1,0.6c0.5,0.4,0.8,1,0.9,1.7h-1.8
		c0-0.3-0.2-0.6-0.4-0.8c-0.2-0.2-0.5-0.3-0.9-0.3c-0.3,0-0.6,0.1-0.8,0.2s-0.3,0.4-0.3,0.7c0,0.2,0.1,0.5,0.2,0.6s0.3,0.3,0.6,0.4
		c0.2,0.1,0.5,0.2,0.9,0.3c0.5,0.2,1,0.4,1.3,0.5s0.6,0.4,0.9,0.8s0.4,0.8,0.4,1.3C126.7-302,126.6-301.6,126.4-301.3z"/>
</g>
<rect x="51.5" y="-308.7" transform="matrix(-1 -1.224647e-16 1.224647e-16 -1 104.4111 -608.8514)" width="1.5" height="8.6"/>
<rect x="55" y="-308.7" transform="matrix(-1 -1.224647e-16 1.224647e-16 -1 111.4822 -608.8514)" width="1.5" height="8.6"/>
<path d="M-167-230v3.6h4.2v-3.6h1.6v8.4h-1.6v-3.4h-4.2v3.4h-1.6v-8.4H-167z"/>
<path d="M-148.8-225.8c0,2.4-1.9,4.3-4.5,4.3c-2.5,0-4.5-1.9-4.5-4.3c0-2.4,1.9-4.2,4.5-4.2C-150.7-230.1-148.8-228.2-148.8-225.8z
	 M-156.1-225.8c0,1.6,1.3,2.8,2.9,2.8c1.5,0,2.8-1.2,2.8-2.8c0-1.6-1.3-2.8-2.8-2.8C-154.8-228.6-156.1-227.4-156.1-225.8z"/>
<path d="M-91.6-230v1.4h-4.5v2.1h4.1v1.4h-4.1v2.1h4.7v1.4h-6.3v-8.4H-91.6z"/>
<rect x="-137.4" y="-241.5" transform="matrix(-0.7071 -0.7071 0.7071 -0.7071 -70.5622 -489.3522)" width="1.5" height="22.9"/>
<rect x="-138.8" y="-233" transform="matrix(-1 -1.224647e-16 1.224647e-16 -1 -276.1784 -461.817)" width="1.5" height="4.2"/>
<rect x="-122.2" y="-241.5" transform="matrix(0.7071 -0.7071 0.7071 0.7071 127.1091 -153.2559)" width="1.5" height="22.9"/>
<rect x="-108.4" y="-234.5" transform="matrix(0.7071 -0.7071 0.7071 0.7071 129.0929 -142.6657)" width="1.5" height="14.6"/>
<rect x="-115.7" y="-233.7" transform="matrix(-0.7071 -0.7071 0.7071 -0.7071 -33.9612 -472.8436)" width="1.5" height="8.6"/>
<g>
	
		<text transform="matrix(1 0 0 1 231.3119 -313.0792)" style="font-family:'Montserrat-Medium'; font-size:15.3383px; letter-spacing:8;">L</text>
	<path d="M234.8-304.3l3.2,8.4l3.2-8.4h2.1l-4.3,10.7h-2.1l-4.2-10.7H234.8z"/>
	<path d="M261.4-304.3v1.8h-5.8v2.7h5.2v1.8h-5.2v2.7h6v1.8h-8v-10.7H261.4z"/>
	<rect x="250.8" y="-323.9" width="10.8" height="10.8"/>
</g>
<g>
	<g>
		<path d="M-4.6-223.6c2.2,0,3.7-1.4,3.7-3.8v-9.5h3.7v9.5c0,4.3-2.8,7-7.4,7c-4.5,0-7.5-2.7-7.5-7v-9.5h3.7v9.5
			C-8.4-225-6.8-223.6-4.6-223.6z"/>
	</g>
	<g>
		<path d="M14.2-233.7c-2.2,0-3.7,1.4-3.7,3.8v9.5H6.9v-9.5c0-4.3,2.8-7,7.4-7c4.5,0,7.5,2.7,7.5,7v9.5H18v-9.5
			C18-232.2,16.4-233.7,14.2-233.7z"/>
	</g>
	<rect x="-12.1" y="-243.9" width="3.7" height="3.7"/>
	<rect x="18" y="-216.7" width="3.7" height="3.7"/>
</g>
<g>
	
		<text transform="matrix(1 0 0 1 242.7291 -224.0465)" style="font-family:'Montserrat-SemiBold'; font-size:14.6381px; letter-spacing:2;">MORGAN</text>
	
		<text transform="matrix(1 0 0 1 280.0937 -215.3651)" style="font-family:'Montserrat-Regular'; font-size:5.7563px; letter-spacing:1;">ACCOUNTER</text>
	<rect x="330" y="-234.2" width="10.3" height="18.8"/>
</g>
<g>
	<path d="M923.4-841.5v4.6h2.3v0.8h-3.2v-5.4H923.4z"/>
	<path d="M933.4-837.4h-2.7l-0.5,1.2h-0.9l2.4-5.4h0.9l2.4,5.4h-1L933.4-837.4z M933.1-838.2l-1-2.4l-1,2.4H933.1z"/>
	<path d="M938.8-841.5l1.3,4.4l1.3-4.4h0.9l1.3,4.4l1.3-4.4h0.9l-1.8,5.4h-0.9l-1.3-4.2l-1.3,4.2h-0.9l-1.8-5.4H938.8z"/>
	<path d="M950.3-841.1c0,0.2-0.1,0.3-0.1,0.4l-0.4,0.7h-0.5l0.3-0.7c-0.1-0.1-0.2-0.2-0.2-0.4c0-0.3,0.2-0.5,0.5-0.5
		C950.1-841.5,950.3-841.4,950.3-841.1z"/>
	<path d="M956.3-840.7c-0.5,0-0.9,0.2-0.9,0.6c0,1.2,2.9,0.5,2.9,2.5c0,1-0.8,1.6-2,1.6c-0.8,0-1.7-0.3-2.2-0.9l0.4-0.8
		c0.6,0.5,1.2,0.8,1.8,0.8c0.6,0,1-0.2,1-0.7c0-1.2-2.9-0.5-2.9-2.5c0-0.9,0.8-1.5,2-1.5c0.7,0,1.4,0.2,1.9,0.6l-0.4,0.8
		C957.3-840.6,956.7-840.7,956.3-840.7z"/>
</g>
<path d="M925.3-858.2l6.5,8.6v-8.6h2.9v13.4h-2.8l-6.5-8.6v8.6h-2.9v-13.4H925.3z"/>
<path d="M951.6-851.5c0,3.9-3.1,6.8-7.2,6.8c-4.1,0-7.2-2.9-7.2-6.8c0-3.9,3.1-6.8,7.2-6.8C948.5-858.3,951.6-855.3,951.6-851.5z
	 M940.3-851.5c0,2.4,1.9,4.2,4.1,4.2c2.2,0,4.1-1.8,4.1-4.2s-1.8-4.1-4.1-4.1C942.2-855.6,940.3-853.8,940.3-851.5z"/>
<path d="M956-858.2l3.7,10.1l7.3-19.5h3.1l-8.9,22.8H958l-5.3-13.4H956z"/>
<path d="M974.9-847.4h-6.2l-4.7,11.3h-3.1l9.5-22.1h3.1l5.7,13.4H976L974.9-847.4z M974-849.8l-2.1-5.2l-2.1,5.2H974z"/>
<g>
	<path d="M515.5-844.7h-4.7l-0.8,2h-2.4L512-853h2.4l4.4,10.2h-2.5L515.5-844.7z M514.7-846.6l-1.6-4l-1.6,4H514.7z"/>
	<path d="M524.3-853v8.2h4.4v2h-6.7V-853H524.3z"/>
	<path d="M540-853v1.9h-5.5v2.2h4.9v1.9h-4.9v2.3h5.6v1.9h-8V-853H540z"/>
	<path d="M547.1-853.9c-0.8,0-1.3,0.3-1.3,0.8c0,1.9,5.5,0.8,5.4,4.5c0,2-1.7,3.1-4,3.1c-1.7,0-3.4-0.6-4.5-1.6l0.9-1.9
		c1.1,0.9,2.5,1.5,3.6,1.5c1,0,1.5-0.4,1.5-1c0-1.9-5.5-0.8-5.5-4.4c0-1.9,1.6-3,4-3c1.4,0,2.9,0.4,3.9,1.1l-0.9,1.9
		C549.2-853.5,547.9-853.9,547.1-853.9z"/>
	<path d="M552.6-848.2c-0.8,0-1.3,0.3-1.3,0.8c0,1.9,5.5,0.8,5.4,4.5c0,2-1.7,3.1-4,3.1c-1.7,0-3.4-0.6-4.5-1.6l0.9-1.9
		c1.1,0.9,2.5,1.5,3.6,1.5c1,0,1.5-0.4,1.5-1c0-1.9-5.5-0.8-5.5-4.4c0-1.9,1.6-3,4-3c1.4,0,2.9,0.4,3.9,1.1l-0.9,1.9
		C554.7-847.8,553.4-848.2,552.6-848.2z"/>
	<path d="M570.6-847.8c0,3-2.4,5.2-5.5,5.2c-3.1,0-5.5-2.3-5.5-5.2c0-3,2.4-5.2,5.5-5.2C568.2-853,570.6-850.8,570.6-847.8z
		 M562-847.8c0,1.8,1.4,3.2,3.2,3.2s3.1-1.4,3.1-3.2s-1.4-3.2-3.1-3.2C563.4-851,562-849.6,562-847.8z"/>
</g>
<path d="M643-838.9c-0.8,0-1.4,0.3-1.4,0.9c0,2,5.7,0.9,5.7,4.7c0,2.1-1.8,3.2-4.2,3.2c-1.8,0-3.5-0.7-4.7-1.7l1-2
	c1.1,1,2.7,1.6,3.8,1.6c1,0,1.6-0.4,1.6-1c0-2-5.7-0.8-5.7-4.6c0-1.9,1.7-3.2,4.1-3.2c1.5,0,3,0.5,4.1,1.2l-0.9,2
	C645.2-838.5,643.8-838.9,643-838.9z"/>
<path d="M661.6-835.5c0,3.1-2.5,5.5-5.7,5.5s-5.7-2.4-5.7-5.5c0-3.1,2.5-5.4,5.7-5.4S661.6-838.6,661.6-835.5z M652.5-835.5
	c0,1.9,1.5,3.3,3.3,3.3c1.8,0,3.2-1.5,3.2-3.3c0-1.9-1.5-3.3-3.2-3.3C654-838.8,652.5-837.4,652.5-835.5z"/>
<path d="M667.7-840.9l3.1,6.5l3.1-6.5h2.7v10.7h-2.2v-7.2l-2.8,6.1H670l-2.8-6.1v7.2H665v-10.7H667.7z"/>
<path d="M686.9-840.9v2h-3.7v2.3h8v2h-8v2.4h3.8v2h-6.2v-10.7H686.9z"/>
<g>
	<path d="M700.9-835.5c0,3-2.4,5.4-5.7,5.4c-3.2,0-5.7-2.3-5.7-5.4c0-3.1,2.4-5.3,5.7-5.3C698.4-840.9,700.9-838.6,700.9-835.5z
		 M692-835.5c0,1.8,1.5,3.3,3.2,3.3s3.2-1.4,3.2-3.3c0-1.9-1.4-3.3-3.2-3.3C693.5-838.8,692-837.4,692-835.5z"/>
	<path d="M706.4-840.8l5.1,6.8v-6.8h2.3v10.5h-2.2l-5.1-6.8v6.8h-2.3v-10.5H706.4z"/>
	<path d="M725.9-840.8v2h-5.6v2.3h5.1v2h-5.1v2.3h5.8v2h-8.2v-10.5H725.9z"/>
</g>
<g>
	<path d="M674.8-875.9v4.4h-8.2v5.1h17.4v4.4h-17.4v5.2h8.3v4.4h-13.6v-23.3H674.8z"/>
	<path d="M705.2-864.2c0,6.6-5.3,11.7-12.4,11.7s-12.4-5.1-12.4-11.7c0-6.7,5.3-11.7,12.4-11.7S705.2-870.9,705.2-864.2z
		 M685.9-864.2c0,4,3.3,7.2,7.1,7.2s7-3.2,7-7.2c0-4-3.1-7.1-7-7.1C689.1-871.3,685.9-868.2,685.9-864.2z"/>
</g>
<g>
	<path d="M806.4-854c0,5.1-3.8,8.6-9.2,8.6h-7.1v-17.2h7.3C802.7-862.6,806.4-859.1,806.4-854z M802.4-854c0-3.2-2.2-5.3-5.2-5.3
		h-3.3v10.6h3.5C800.3-848.7,802.4-850.8,802.4-854z"/>
	<path d="M816.2-848.8h-7.9l-1.3,3.3h-4l7.5-17.2h4l7.3,17.2h-4.1L816.2-848.8z M814.9-851.9l-2.7-6.7l-2.7,6.7H814.9z"/>
	<path d="M831.2-845.4l-2.7-4.9h-0.4h-3.6v4.9h-3.9v-17.2h7.5c4.5,0,7,2.2,7,6c0,2.6-1.1,4.6-3.2,5.5l3.7,5.7H831.2z M824.6-853.6
		h3.6c2.1,0,3.4-1,3.4-2.9c0-1.9-1.2-2.9-3.4-2.9h-3.6V-853.6z"/>
	<path d="M846.1-845.4l-4.9-7l-2.5,2.7v4.2h-3.9v-17.2h3.9v7.8l7.1-7.8h4.5l-6.5,7.2l6.9,10H846.1z"/>
	<path d="M791.8-860.6l0.5,12.9h3.5c0,0,2.4,0.4,2.8,0c0.4-0.4,1.8-1,1.8-1s1.7-1.3,1.9-1.7c0.2-0.3,1.1-2.3,1.1-2.3s0.2-3.6,0-3.8
		s-1.4-2.1-1.4-2.1l-0.9-1.2c0,0-1.3-0.9-2-0.8c-0.7,0.1-2.2,0-2.2,0L791.8-860.6z"/>
	<path d="M811.3-859.4l-3.4,8h8.1c0,0-1.3-4.5-1.1-4.8s-2.6-4.5-2.6-4.5L811.3-859.4z"/>
	<path d="M823.3-859.8v7.9c0,0,2.8,0.4,3.2,0c0.4-0.4,2.2-0.4,2.4-0.5c0.2-0.1,1.3-0.2,1.8-0.3c0.4-0.2,0.7-0.5,0.9-0.7
		c0.2-0.2,0.5-0.4,0.6-0.7c0.1-0.3,0.5-1.3,0.6-1.7c0.1-0.4-0.2-0.9,0-1.4c0.2-0.5,0-1.5,0-1.5l-0.4-0.8l-1.1-1.3h-1.2h-2.4h-1.5
		H824L823.3-859.8z"/>
</g>
<text transform="matrix(1 0 0 1 503.1899 -711.2945)" style="font-family:'Andada-Bold'; font-size:12.0392px; letter-spacing:3;">GILROY</text>
<path d="M546.3-768.9h-25l-12.5,21.7l12.5,21.7h25l12.5-21.7L546.3-768.9z M545.2-727.4h-22.9L511-747.2l11.4-19.8h22.9l11.4,19.8
	L545.2-727.4z"/>
<g>
	<g>
		<path d="M530.9-753.2l-0.2,3l-1.4-0.1l-0.1-0.8c0-0.1-0.1-0.5-0.2-0.7c-0.8-0.2-1.4-0.3-2.2-0.3c-2.4,0-3.4,2.2-3.4,4.9
			s0.9,5,3.4,5c0.6,0,1.2-0.1,1.8-0.1c0.1-0.3,0.1-0.6,0.1-0.8v-1.2c0-0.4-0.2-1.1-0.2-1.1l-1.9-0.1l0.1-1.8h2
			c0.6,0,2.1-0.1,2.1-0.1l0.5,0.5c0,0-0.2,1.7-0.2,2.6v3.2c-1.2,0.3-2.7,0.6-4.3,0.6c-4.4,0-6.6-2.7-6.6-6.6s2.2-6.6,6.6-6.6
			C528.4-753.9,529.6-753.5,530.9-753.2z"/>
	</g>
	<g>
		<path d="M546.3-750c0,1.5-0.9,2.7-2.2,3.4c0.8,1.7,1.8,3.2,1.9,3.3l0.6,1l0.9,0.1l-0.1,1.4c0,0-1.4-0.1-3.4-0.1
			c0,0-0.7-1.7-0.9-2.1l-1.5-2.9h-0.3c-0.2,0-0.5,0-0.8-0.1v1.6c0,0.9,0.1,1.8,0.2,2.1l1.2,0.1l-0.1,1.4c0,0-1.5-0.1-3.5-0.1
			c-0.8,0-1.8,0.1-1.8,0.1l-0.1-1.3l1.2-0.2c0-0.2,0.2-1.2,0.2-1.6v-6.3c0-0.9-0.1-1.7-0.2-2l-1.2-0.2l0.1-1.4c0,0,1,0.1,1.9,0.1
			c1,0,2.7-0.2,3.7-0.2C544.6-753.8,546.3-752.3,546.3-750z M540.6-752.3c-0.1,0.5-0.1,1.4-0.1,1.6v3.3h0.4c1.7,0,2.4-0.9,2.4-2.5
			c0-1.6-0.7-2.4-2.4-2.4C540.9-752.3,540.8-752.3,540.6-752.3z"/>
	</g>
</g>
<g>
	
		<text transform="matrix(1 0 0 1 714.2025 -720.5697)" style="font-family:'Montserrat-SemiBold'; font-size:6.791px; letter-spacing:1;">PTICAL</text>
	<path d="M672-745.4v10.9h5.8v2.7h-8.9v-13.5H672z"/>
	<path d="M699-738.6c0,3.9-3.1,6.9-7.3,6.9c-4.1,0-7.3-3-7.3-6.9c0-3.9,3.1-6.9,7.3-6.9C695.8-745.5,699-742.5,699-738.6z
		 M687.6-738.6c0,2.4,1.9,4.2,4.2,4.2c2.3,0,4.1-1.9,4.1-4.2c0-2.4-1.8-4.2-4.1-4.2C689.5-742.8,687.6-741,687.6-738.6z"/>
	<path d="M720-742.9c-1,0-1.7,0.4-1.7,1.1c0,2.5,7.2,1.1,7.2,6c0,2.6-2.3,4.1-5.3,4.1c-2.2,0-4.4-0.9-6-2.1l1.2-2.5
		c1.4,1.2,3.4,2,4.8,2c1.3,0,2-0.5,2-1.3c0-2.6-7.2-1.1-7.2-5.9c0-2.5,2.1-4,5.2-4c1.9,0,3.8,0.6,5.1,1.5l-1.2,2.5
		C722.8-742.4,721.1-742.9,720-742.9z"/>
	<path d="M743.7-745.4v2.5h-7.2v2.9h6.5v2.5h-6.5v3h7.5v2.5h-10.5v-13.5H743.7z"/>
	<path d="M705.2-730.1c4.1,0,7.3,2.9,7.3,6.9c0,3.9-3.1,6.9-7.3,6.9c-4.1,0-7.3-3-7.3-6.9C697.9-727.2,701.1-730.1,705.2-730.1z
		 M705.2-727.5c-2.3,0-4.1,1.8-4.1,4.2s1.8,4.2,4.1,4.2s4.2-1.9,4.2-4.2S707.4-727.5,705.2-727.5z"/>
	<circle cx="697.9" cy="-730.3" r="1.7"/>
</g>
<text transform="matrix(1 0 0 1 891.1644 -723.5365)" style="font-family:'Montserrat-Regular'; font-size:16.6226px; letter-spacing:3;">AVANTE</text>
<text transform="matrix(1 0 0 1 902.7122 -715.0765)" style="font-family:'Montserrat-Regular'; font-size:6.3984px; letter-spacing:1;">WORK SPACE</text>
<g>
	<path d="M838-716.9h12.9v-45.8v-0.6l0.5-0.2l10.1-4.8v-14.3v-0.9h0.9h17.5h0.9v0.9v19.6l6.7,6.3l0.3,0.3l0,0.4l0.2,39.1h11.9v1.8
		H887h-0.9l0-0.9l-0.2-39.6l-5.2-4.9v44.5v0.9h-0.9h-6.9h-0.9v-0.9v-40.1v-0.4l0.3-0.3l6.6-6.2v-18.7h-15.7v12.5l0.4-0.2l0.4-0.1
		h4.7h0.9v0.9v52.6v0.9h-0.9h-6.4h-0.9v-0.9v-50.3l-8.8,4.2v46.1v0.9h-0.9H838V-716.9L838-716.9z M864.3-767.6l-1,0.5v50.3h4.6
		v-50.8H864.3L864.3-767.6z M878.9-716.9v-43.6l-5.1,4.8v38.8H878.9z"/>
</g>
<g>
	<path d="M479.8-629.6c-0.7,0-1.1,0.2-1.1,0.7c0,1.7,4.8,0.7,4.8,4c0,1.8-1.5,2.7-3.5,2.7c-1.5,0-3-0.6-4-1.4l0.8-1.7
		c0.9,0.8,2.2,1.4,3.2,1.4c0.8,0,1.3-0.3,1.3-0.9c0-1.7-4.8-0.7-4.8-3.9c0-1.6,1.4-2.7,3.5-2.7c1.3,0,2.5,0.4,3.4,1l-0.8,1.7
		C481.6-629.2,480.5-629.6,479.8-629.6z"/>
	<path d="M488.9-631.1c0,0.6-0.4,1.1-1.1,1.1s-1.1-0.5-1.1-1.1c0-0.6,0.4-1.1,1.1-1.1S488.9-631.7,488.9-631.1z M488.8-629.1v6.9h-2
		v-6.9H488.8z"/>
	<path d="M504.5-626.5v4.4h-2v-3.8c0-0.9-0.5-1.4-1.3-1.4c-1,0-1.5,0.8-1.5,1.8v3.4h-2v-3.8c0-0.9-0.5-1.4-1.3-1.4
		c-1,0-1.5,0.8-1.5,1.8v3.4h-2v-6.9h2v1.2c0.5-0.9,1.3-1.3,2.3-1.3c1.2,0,2,0.6,2.3,1.6c0.5-1.1,1.3-1.6,2.5-1.6
		C503.5-629.2,504.5-628.2,504.5-626.5z"/>
	<path d="M515.7-625.6c0,2.1-1.3,3.5-3.2,3.5c-1,0-1.7-0.4-2.2-1.1v4.5h-2v-10.4h2v1c0.5-0.7,1.2-1.1,2.2-1.1
		C514.4-629.2,515.7-627.8,515.7-625.6z M513.7-625.7c0-1.1-0.7-1.9-1.7-1.9s-1.7,0.8-1.7,1.9c0,1.1,0.7,1.9,1.7,1.9
		S513.7-624.5,513.7-625.7z"/>
	<path d="M521.2-631.7v9.6h-2v-9.6H521.2z"/>
	<path d="M527.3-631.1c0,0.6-0.4,1.1-1.1,1.1s-1.1-0.5-1.1-1.1c0-0.6,0.4-1.1,1.1-1.1S527.3-631.7,527.3-631.1z M527.2-629.1v6.9h-2
		v-6.9H527.2z"/>
	<path d="M534.2-627.5c-1,0-1.6,0.7-1.6,1.9c0,1.1,0.7,1.9,1.6,1.9c0.7,0,1.3-0.3,1.6-0.8l1.4,0.9c-0.6,1-1.7,1.5-3.1,1.5
		c-2.1,0-3.5-1.4-3.5-3.5c0-2.1,1.4-3.6,3.6-3.6c1.3,0,2.4,0.5,3,1.5l-1.3,1C535.4-627.2,534.9-627.5,534.2-627.5z"/>
	<path d="M542.5-631.1c0,0.6-0.4,1.1-1.1,1.1s-1.1-0.5-1.1-1.1c0-0.6,0.4-1.1,1.1-1.1S542.5-631.7,542.5-631.1z M542.4-629.1v6.9h-2
		v-6.9H542.4z"/>
	<path d="M550.7-622.6c-0.5,0.3-1.2,0.5-1.8,0.5c-1.2,0-2.2-0.7-2.2-2.1v-3.2h-1v-1.4h1v-1.9h2v1.9h1.9v1.4h-1.9v2.9
		c0,0.6,0.2,0.8,0.7,0.8c0.3,0,0.6-0.1,0.9-0.3L550.7-622.6z"/>
	<path d="M554.8-619.6c-0.7,0-1.3-0.2-1.9-0.7l0.8-1.4c0.3,0.3,0.6,0.4,0.9,0.4c0.4,0,0.7-0.2,0.9-0.6l0.2-0.4l-2.9-6.8h2l1.8,4.8
		l1.6-4.8h2l-3,7.7C556.8-620.2,556-619.6,554.8-619.6z"/>
	<rect x="475.9" y="-620.8" width="30.5" height="2.1"/>
	<rect x="512.2" y="-620.8" width="39.1" height="2.1"/>
</g>
<g>
	
		<text transform="matrix(1 0 0 1 627.7006 -621.3833)" style="font-family:'Montserrat-SemiBold'; font-size:14.6381px; letter-spacing:6;">SAONA</text>
	<rect x="658.5" y="-637" transform="matrix(0.7071 -0.7071 0.7071 0.7071 641.9072 280.5758)" width="2.3" height="4.9"/>
	<rect x="671.7" y="-637" transform="matrix(-0.7071 -0.7071 0.7071 -0.7071 1597.2894 -607.5062)" width="2.3" height="4.9"/>
	<rect x="665.1" y="-639.8" transform="matrix(-1 -4.483581e-11 4.483581e-11 -1 1332.4646 -1274.7501)" width="2.3" height="4.9"/>
	<rect x="671.7" y="-619.9" transform="matrix(-0.7071 0.7071 -0.7071 -0.7071 712.0067 -1529.7552)" width="2.3" height="4.9"/>
	<rect x="658.5" y="-619.9" transform="matrix(0.7071 0.7071 -0.7071 0.7071 -243.3755 -647.2719)" width="2.3" height="4.9"/>
	<rect x="665.1" y="-617" width="2.3" height="4.9"/>
</g>
<g>
	
		<text transform="matrix(1 0 0 1 517.7067 -528.4629)" style="font-family:'Montserrat-SemiBold'; font-size:14.6381px; letter-spacing:6;">SOLAR</text>
	
		<text transform="matrix(1 0 0 1 551.2062 -513.8688)" style="font-family:'Montserrat-SemiBold'; font-size:14.6381px; letter-spacing:6;">STONE</text>
	<rect x="531.5" y="-544.1" transform="matrix(0.7071 -0.7071 0.7071 0.7071 539.0068 217.9932)" width="2.3" height="4.9"/>
	<rect x="544.7" y="-544.1" transform="matrix(-0.7071 -0.7071 0.7071 -0.7071 1314.7925 -538.6796)" width="2.3" height="4.9"/>
	<rect x="538.1" y="-546.9" transform="matrix(-1 -4.562229e-11 4.562229e-11 -1 1078.4766 -1088.9094)" width="2.3" height="4.9"/>
	<rect x="544.7" y="-526.9" transform="matrix(-0.7071 0.7071 -0.7071 -0.7071 560.919 -1281.332)" width="2.3" height="4.9"/>
	<rect x="531.5" y="-526.9" transform="matrix(0.7071 0.7071 -0.7071 0.7071 -214.8666 -530.2579)" width="2.3" height="4.9"/>
	<rect x="538.1" y="-524.1" width="2.3" height="4.9"/>
</g>
<g>
	<g>
		
			<text transform="matrix(1 0 0 1 714.8008 -533.8553)" style="font-family:'Norwester-Regular'; font-size:24.1048px; letter-spacing:2;">AB</text>
	</g>
	<g>
		
			<text transform="matrix(1 0 0 1 713.8848 -509.5114)" style="font-family:'Norwester-Regular'; font-size:24.1048px; letter-spacing:4;">ER</text>
	</g>
</g>
<g>
	<path d="M770-631.5v4.3h4.6v-4.3h2.3v10.2h-2.3v-4H770v4h-2.3v-10.2H770z"/>
	<path d="M790.8-631.5v1.9h-5.5v2.2h4.9v1.9h-4.9v2.3h5.6v1.9h-8v-10.2H790.8z"/>
	<path d="M803.3-623.3h-4.7l-0.8,2h-2.4l4.4-10.2h2.4l4.4,10.2h-2.5L803.3-623.3z M802.6-625.1l-1.6-4l-1.6,4H802.6z"/>
	<path d="M821.2-626.4c0,3-2.2,5.1-5.5,5.1h-4.3v-10.2h4.3C819-631.5,821.2-629.4,821.2-626.4z M818.9-626.4c0-1.9-1.3-3.2-3.1-3.2
		h-2v6.4h2.1C817.6-623.2,818.9-624.5,818.9-626.4z"/>
	<path d="M828.9-631.5v8.2h4.4v2h-6.7v-10.2H828.9z"/>
	<path d="M840.7-631.5v10.2h-2.3v-10.2H840.7z"/>
	<path d="M848.9-631.5l5,6.6v-6.6h2.2v10.2H854l-5-6.6v6.6h-2.2v-10.2H848.9z"/>
	<path d="M870-631.5v1.9h-5.5v2.2h4.9v1.9h-4.9v2.3h5.6v1.9h-8v-10.2H870z"/>
	<rect x="761.9" y="-627.4" width="107.5" height="2.2"/>
	<polygon class="st1" points="801,-629.1 799.4,-625.1 802.6,-625.1 	"/>
	<polygon class="st1" points="849,-627.9 849,-624.8 851.3,-624.8 	"/>
	<polygon class="st1" points="853.9,-624.9 853.9,-628 851.6,-628 	"/>
	<path class="st1" d="M818.9-626.4c0-1.9-1.3-3.2-3.1-3.2h-2v6.4h2.1C817.6-623.2,818.9-624.5,818.9-626.4z"/>
</g>
<g>
	<g>
		
			<text transform="matrix(1 0 0 1 894.5358 -224.6829)" style="font-family:'Superclarendon-Black'; font-size:19.2869px; letter-spacing:-1;">Ouadon</text>
	</g>
	<path d="M909.7-222.7c-0.7,1.9-2.1,2.8-4.2,2.8c-0.5,0-1-0.1-1.5-0.2c-0.4-0.1-0.9-0.2-1.3-0.3c-0.4-0.1-0.8-0.2-1.2-0.3
		s-0.8-0.2-1.2-0.2c-1.1,0-1.8,0.3-2.2,0.9l-1.8-0.7c1.1-1.8,2.5-2.8,4.3-2.8c0.6,0,1.2,0.1,1.7,0.2c0.5,0.1,0.9,0.2,1.2,0.3
		s0.7,0.2,1.1,0.3c0.4,0.1,0.8,0.2,1.2,0.2c0.8,0,1.5-0.3,1.9-0.9L909.7-222.7z"/>
</g>
<g>
	<path d="M477.1-228.3l4.7,6.2v-6.2h2.5v10.3h-2.3l-4.7-6.1v6.1h-2.5v-10.3H477.1z"/>
	<path d="M500.4-228.3v2.1H495v1.9h16.9v2.1H495v1.9h5.6v2.1h-8.2v-4.1h-5v-2.1h5v-4.1H500.4z"/>
	<path d="M510.8-228.3l1.9,2.9l1.9-2.9h3.2l-3.4,4.9l3.7,5.4h-3.2l-2.2-3.2l-2.1,3.2h-3.1l3.6-5.2l-3.4-5H510.8z"/>
	<path d="M533.2-228.3v2.2h-3.1v8h-2.7v-8h-3v-2.2H533.2z"/>
</g>
<g>
	<rect x="871.6" y="-331.8" width="83.1" height="30.9"/>
	<g>
		
			<text transform="matrix(1 0 0 1 878.7581 -308.6)" class="st1" style="font-family:'Superclarendon-BlackItalic'; font-size:21.9076px; letter-spacing:1;">Tisa</text>
	</g>
</g>
<g>
	<circle cx="711.3" cy="-316.3" r="14.9"/>
	
		<text transform="matrix(1 0 0 1 701.584 -311.6796)" class="st1" style="font-family:'Montserrat-SemiBold'; font-size:12.0746px; letter-spacing:5;">IN</text>
	
		<text transform="matrix(1 0 0 1 727.1192 -311.6805)" style="font-family:'Montserrat-SemiBold'; font-size:12.0746px; letter-spacing:5;">TRO</text>
</g>
<rect x="948.1" y="-451.8" width="8.4" height="8.4"/>
<g>
	<path d="M907-410.4v4.9h5.4v-4.9h2.7v11.8h-2.7v-4.7H907v4.7h-2.7v-11.8H907z"/>
	<path d="M921.6-410.4v11.8H919v-11.8H921.6z"/>
	<path d="M935.4-406.3c0,2.8-1.7,4.3-4.7,4.3h-2.4v3.4h-2.7v-11.8h5C933.6-410.4,935.4-408.9,935.4-406.3z M932.8-406.2
		c0-1.3-0.8-2-2.3-2h-2.2v4h2.2C932-404.2,932.8-404.9,932.8-406.2z"/>
	<path d="M947.2-410.4v2.3h-3.6v9.6h-2.7v-9.6h-3.6v-2.3H947.2z"/>
	<path d="M961.2-404.5c0,3.4-2.7,6-6.4,6c-3.6,0-6.4-2.6-6.4-6c0-3.5,2.7-6,6.4-6C958.4-410.5,961.2-407.9,961.2-404.5z
		 M951.2-404.5c0,2.1,1.7,3.7,3.7,3.7c2,0,3.6-1.6,3.6-3.7s-1.6-3.7-3.6-3.7C952.9-408.2,951.2-406.6,951.2-404.5z"/>
	<path d="M966.7-410.4l5.7,7.6v-7.6h2.5v11.8h-2.4l-5.7-7.6v7.6h-2.6v-11.8H966.7z"/>
</g>
<g>
	<path d="M931.2-451.8v15.5h16.8l0,0h8.4v21.6h-8.4v-14.6h-16.8v14.6h-8.4v-37.1H931.2z"/>
</g>
<g>
	
		<text transform="matrix(1 0 0 1 636.1214 -421.4613)" style="font-family:'Montserrat-SemiBold'; font-size:16.5459px; letter-spacing:6;">BEST</text>
	<g>
		<g>
			<path d="M651.5-416.4c0,3.9-2.4,6.1-6.6,6.1h-2.2v4.2h-5.3v-16h7.5C649.1-422.1,651.5-420,651.5-416.4z M646.5-416.2
				c0-1.2-0.7-1.9-1.8-1.9h-1.9v3.8h1.9C645.8-414.3,646.5-415,646.5-416.2z"/>
			<path d="M669-414.1c0,4.8-3.7,8.3-8.8,8.3c-5.1,0-8.8-3.5-8.8-8.3c0-4.8,3.7-8.2,8.8-8.2C665.3-422.3,669-418.8,669-414.1z
				 M656.8-414.1c0,2.2,1.6,3.8,3.4,3.8c1.8,0,3.3-1.6,3.3-3.8c0-2.2-1.5-3.8-3.3-3.8C658.4-417.9,656.8-416.3,656.8-414.1z"/>
			<path d="M679.8-406.1l-3.3-5.5l-1.6,1.7v3.8h-5.3v-16h5.3v5.6l4.8-5.6h6.1l-5.7,6.5l6.1,9.6H679.8z"/>
			<path d="M699.9-422.1v4h-8.3v2h7.5v4h-7.5v2h8.5v4h-13.8v-16H699.9z"/>
		</g>
	</g>
</g>
<g>
	
		<text transform="matrix(1 0 0 1 926.8787 -620.7015)" style="font-family:'Montserrat-Light'; font-size:14.6381px; letter-spacing:1;">SANDLER</text>
	<rect x="967" y="-648.5" transform="matrix(-1.836970e-16 1 -1 -1.836970e-16 329.7147 -1605.4717)" width="1.2" height="21.3"/>
</g>
<g>
	
		<text transform="matrix(1 0 0 1 871.0442 -526.7915)" style="font-family:'Montserrat-SemiBold'; font-size:14.6381px; letter-spacing:6;">SAONA</text>
	<rect x="908.3" y="-545.4" transform="matrix(-1.836970e-16 1 -1 -1.836970e-16 369.1406 -1449.6083)" width="2.2" height="10.3"/>
	<rect x="908.3" y="-528.6" transform="matrix(-1.836970e-16 1 -1 -1.836970e-16 385.9531 -1432.7958)" width="2.2" height="10.3"/>
</g>
<text transform="matrix(1 0 0 1 488.7833 -382.5541)" style="font-family:'Montserrat-SemiBold'; font-size:8.7672px; letter-spacing:1;">GEOMETRIC</text>
<path d="M488.8-429.9v36.5h36.5v-36.5H488.8z M523.4-395.3h-32.9v-32.9h32.9V-395.3z"/>
<path d="M496.8-447.1v36.5h36.5v-36.5H496.8z M531.5-412.4h-32.9v-32.9h32.9V-412.4z"/>
<path d="M515.8-438.6v36.5h36.5v-36.5H515.8z M550.5-404h-32.9v-32.9h32.9V-404z"/>
<g>
	
		<text transform="matrix(1 0 0 1 523.8757 -310.1742)" style="font-family:'Montserrat-SemiBold'; font-size:14.6381px; letter-spacing:6;">GOON</text>
	<rect x="563.5" y="-322.7" width="2.2" height="6.4"/>
</g>
<ellipse transform="matrix(0.7284 -0.6852 0.6852 0.7284 330.6145 384.6142)" class="st2" cx="650.4" cy="-224.7" rx="39" ry="19.1"/>
<text transform="matrix(1 0 0 1 613.3285 -219.7344)"><tspan x="0" y="0" style="font-family:'Montserrat-SemiBold'; font-size:14.6381px; letter-spacing:6;">L</tspan><tspan x="14.9" y="0" class="st1" style="font-family:'Montserrat-SemiBold'; font-size:14.6381px; letter-spacing:6;">AKE</tspan><tspan x="64.8" y="0" style="font-family:'Montserrat-SemiBold'; font-size:14.6381px; letter-spacing:6;">S</tspan></text>
<g>
	
		<text transform="matrix(1 0 0 1 755.6497 -219.9566)" style="font-family:'Superclarendon-Bold'; font-size:19.2869px; letter-spacing:-1;">Dreams</text>
</g>
<path d="M751-236.5c0,0,18.4-5.8,41.4-0.7c23,5.1,42-1.2,42-1.2s3.8-1.2,0,0.7c-1.4,0.7-12.7,6-37.1,4.6c0,0-5.1-0.5-8.6-1.2
	c-3.5-0.7-17.6-4-33.5-2.1C755.2-236.5,745.6-234.9,751-236.5z"/>
<path d="M751-213.7c0,0,18.4-5.8,41.4-0.7c23,5.1,42-1.2,42-1.2s3.8-1.2,0,0.7c-1.4,0.7-12.7,6-37.1,4.6c0,0-5.1-0.5-8.6-1.2
	c-3.5-0.7-17.6-4-33.5-2.1C755.2-213.7,745.6-212.1,751-213.7z"/>
<g>
	
		<text transform="matrix(1 0 0 1 783.8722 -394.2406)" style="font-family:'Montserrat-SemiBold'; font-size:14.4758px; letter-spacing:4;">CITY</text>
	<rect x="793" y="-438.6" width="9.7" height="29.3"/>
	<rect x="783.9" y="-429.8" width="6.4" height="20.6"/>
	<rect x="805.5" y="-424.9" width="6.4" height="15.7"/>
	<rect x="814.7" y="-432.5" width="15.1" height="23.2"/>
</g>
<g>
	<path class="st3" d="M47.6,4.2v4.4H35.8v7.5h9.4v4.3h-9.4v11.8h-5.6v-28H47.6z"/>
	<path class="st3" d="M94.6,5.6c2.1,1.2,3.8,2.9,5,5.1c1.2,2.2,1.8,4.6,1.8,7.4s-0.6,5.2-1.8,7.4c-1.2,2.2-2.9,3.9-5,5.1
		s-4.5,1.8-7.1,1.8c-2.6,0-5-0.6-7.1-1.8c-2.1-1.2-3.8-2.9-5-5.1c-1.2-2.2-1.8-4.7-1.8-7.4s0.6-5.2,1.8-7.4c1.2-2.2,2.9-3.9,5-5.1
		c2.1-1.2,4.5-1.8,7.1-1.8C90.1,3.8,92.5,4.4,94.6,5.6z M83.2,10c-1.2,0.7-2.2,1.8-2.9,3.2c-0.7,1.4-1.1,3-1.1,4.9
		c0,1.9,0.4,3.5,1.1,4.9c0.7,1.4,1.7,2.5,2.9,3.2c1.2,0.7,2.7,1.1,4.3,1.1c1.6,0,3.1-0.4,4.3-1.1c1.2-0.7,2.2-1.8,2.9-3.2s1-3,1-4.9
		c0-1.8-0.3-3.5-1-4.9S93,10.8,91.8,10c-1.2-0.7-2.7-1.1-4.3-1.1C85.8,8.9,84.4,9.3,83.2,10z"/>
	<path class="st3" d="M150,6.6c2.3,1.8,3.8,4.2,4.6,7.3h-5.9c-0.6-1.5-1.6-2.7-2.8-3.6C144.5,9.5,143,9,141.2,9
		c-1.5,0-2.8,0.4-4,1.1c-1.2,0.7-2.1,1.8-2.8,3.2c-0.7,1.4-1,3-1,4.8c0,1.8,0.3,3.4,1,4.8c0.7,1.4,1.6,2.4,2.8,3.2
		c1.2,0.7,2.5,1.1,4,1.1c1.8,0,3.3-0.4,4.6-1.3c1.3-0.9,2.2-2.1,2.8-3.6h5.9c-0.7,3.1-2.3,5.5-4.6,7.3c-2.3,1.8-5.2,2.7-8.7,2.7
		c-2.7,0-5-0.6-7.1-1.8c-2.1-1.2-3.6-2.9-4.8-5.1s-1.7-4.6-1.7-7.4c0-2.8,0.6-5.2,1.7-7.4s2.7-3.9,4.7-5.1c2-1.2,4.4-1.8,7.1-1.8
		C144.8,3.9,147.7,4.8,150,6.6z"/>
	<path class="st3" d="M187.1,4.2v16.4c0,2.2,0.5,3.8,1.4,4.9c1,1.1,2.4,1.6,4.2,1.6c1.8,0,3.2-0.5,4.1-1.6c1-1.1,1.5-2.7,1.5-4.9
		V4.2h5.5v16.4c0,2.6-0.5,4.8-1.5,6.6c-1,1.8-2.3,3.1-4,4c-1.7,0.9-3.6,1.3-5.8,1.3c-3.4,0-6-1-8-3c-2-2-3-5-3-8.8V4.2H187.1z"/>
	<path class="st3" d="M249.9,28.4c-0.7,1.2-1.8,2.2-3.2,2.9c-1.4,0.7-3.1,1.1-5.1,1.1c-2,0-3.8-0.3-5.3-1c-1.6-0.7-2.8-1.6-3.7-2.9
		c-0.9-1.3-1.5-2.7-1.6-4.4h5.9c0.1,1.1,0.6,2.1,1.4,2.8c0.8,0.8,1.8,1.1,3.1,1.1c1.2,0,2.1-0.3,2.7-0.9c0.6-0.6,0.9-1.4,0.9-2.4
		c0-0.9-0.3-1.6-0.8-2.2c-0.5-0.6-1.1-1-1.9-1.4c-0.8-0.3-1.8-0.7-3.2-1.2c-1.7-0.6-3.2-1.2-4.3-1.7c-1.1-0.6-2.1-1.4-2.8-2.5
		c-0.8-1.1-1.2-2.5-1.2-4.2c0-2.4,0.9-4.3,2.6-5.7s4-2.1,6.9-2.1c3,0,5.3,0.7,7.1,2.1c1.8,1.4,2.8,3.3,3,5.7h-6
		c-0.2-1-0.6-1.8-1.3-2.5c-0.7-0.6-1.6-1-2.8-1c-1,0-1.9,0.3-2.5,0.8c-0.6,0.5-1,1.3-1,2.4c0,0.8,0.2,1.5,0.7,2
		c0.5,0.5,1.1,1,1.9,1.3c0.8,0.3,1.8,0.7,3.1,1.1c1.8,0.6,3.3,1.2,4.4,1.8s2.1,1.4,2.9,2.5c0.8,1.1,1.2,2.6,1.2,4.4
		C251,25.9,250.6,27.2,249.9,28.4z"/>
</g>
<rect x="2.4" y="3.8" transform="matrix(-1 -1.224647e-16 1.224647e-16 -1 9.8208 35.907)" class="st4" width="5" height="28.4"/>
<rect x="14.1" y="3.8" transform="matrix(-1 -1.224647e-16 1.224647e-16 -1 33.1752 35.907)" class="st4" width="5" height="28.4"/>
</svg>
